# xmcd
#
# Track frame offsets:
#	150
#	16595
#	30170
#	43865
#	58963
#	71515
#	86725
#	98523
#	119775
#	139058
#	148858
#	161293
#	172933
#	184150
#	194803
#	205460
#	225660
#
# Disc length: 3178 seconds
#
# Revision: 3
# Processed by: cddbd v1.5.2PL0 Copyright (c) Steve Scherf et al.
# Submitted via: EZCDAudioConverter 9.1.1.1
#
DISCID=f00c6811
DTITLE=Ennio Morricone - Screen Theme-Ennio Morricone
DYEAR=1992
DGENRE=SoundTrack
TTITLE0=CHI MAI (영화 '프로페셔널' 테마)
TTITLE1=The Good, The Bad, And The Ugly (영화 '석양에 돌아오다' 테마)
TTITLE2=The Man With The Harmonica (영화 '하모니카 부는 사람' 테마)
TTITLE3=El Mercenarion (욕심)
TTITLE4=For A Few Dollars More (영화 '석양의 건맨' 테마)
TTITLE5=Once Upon A Time In The West ('윈스 어폰 어 타임 인 더 웨스트' 테마)
TTITLE6=IL Etait Fois La Revolution (단 한 번의 혁명)
TTITLE7=A Fisrful Of Dynamite (다이나마이트)
TTITLE8=Cockeye's Song(Once Upon A Time In America)_(칵아이즈송)
TTITLE9=Once Upon A Time In America (윈스 어폰 어 타임 인 아케리카 테마)
TTITLE10=ExorcistⅡ (속 '엑소시스트')
TTITLE11=A Fisrful Of Dollars(1st Theme)_( '석양의 무법자' 테마)
TTITLE12=A Fisrful Of Dollars(2nt Theme)_(속 '석양의 무법자' 테마)
TTITLE13=Sixty-Seconds To What (예순두번째)
TTITLE14=A Gun For Rngo (총잡이 링고)
TTITLE15=Orient Express ('오리엔트 특급' 테마)
TTITLE16=The Misson ('미션' 테마)
EXTD=
EXTT0=
EXTT1=
EXTT2=
EXTT3=
EXTT4=
EXTT5=
EXTT6=
EXTT7=
EXTT8=
EXTT9=
EXTT10=
EXTT11=
EXTT12=
EXTT13=
EXTT14=
EXTT15=
EXTT16=
PLAYORDER=
